# xmcd CD database file
#
# Track frame offsets:
#	150
#	36312
#	69929
#	93478
#	123770
#	151125
#	177709
#	200656
#	230163
#	260013
#	283132
#
# Disc length: 4013 seconds
#
# Revision: 0
# Processed by: cddbd v1.5.1PL0 Copyright (c) Steve Scherf et al.
# Submitted via: CDex 1.51
#
DISCID=a30fab0b
DTITLE=Art Blakey - Max Roach - percussion discussion
DYEAR=1900
DGENRE=Jazz
TTITLE0=scotch blues
TTITLE1=flight to jordan
TTITLE2=transfiguration
TTITLE3=exhibit a
TTITLE4=gershwin medley
TTITLE5=crackle hut
TTITLE6=speculcate
TTITLE7=that ole devil moon
TTITLE8=audio blues
TTITLE9=cm
TTITLE10=four-x
EXTD=
EXTT0=
EXTT1=
EXTT2=
EXTT3=
EXTT4=
EXTT5=
EXTT6=
EXTT7=
EXTT8=
EXTT9=
EXTT10=
PLAYORDER=
